<?xml version="1.0" encoding="UTF-8"?>
<svg version="1.1" xmlns="http://www.w3.org/2000/svg" width="508" height="508">
<path d="M0 0 C0.80036682 -0.00705963 1.60073364 -0.01411926 2.425354 -0.02139282 C35.50545133 -0.24693712 35.50545133 -0.24693712 50.390625 3.203125 C51.29586914 3.40180176 52.20111328 3.60047852 53.13378906 3.80517578 C81.97991559 10.24275166 109.5723636 22.83266641 126.390625 48.203125 C133.03886451 60.01829867 132.87585371 74.09130031 129.48046875 86.984375 C125.5929891 98.46567689 118.87058562 106.86585603 110.390625 115.203125 C109.524375 116.06808594 108.658125 116.93304688 107.765625 117.82421875 C94.48760337 130.4897126 78.29041639 138.73456109 62.36376953 147.55175781 C43.29166184 157.03122665 43.29166184 157.03122665 29.390625 172.203125 C28.87295575 176.27052627 29.05119188 178.52425876 30.890625 182.203125 C36.45687138 188.88262066 43.09300744 193.52279793 50.578125 197.828125 C52.35633179 198.87222947 54.1336476 199.91785257 55.91015625 200.96484375 C56.81717285 201.49770996 57.72418945 202.03057617 58.65869141 202.57958984 C63.06890416 205.20049376 67.41450491 207.92317097 71.765625 210.640625 C96.29485909 225.87652592 121.22792334 240.79565837 147.453125 252.953125 C148.48018555 253.43015869 149.50724609 253.90719238 150.56542969 254.39868164 C172.49494147 264.32506762 193.61815539 266.50372916 216.4375 258.078125 C219.69520411 257.11287934 222.3772839 257.00282853 225.765625 257.078125 C226.82523437 257.09617187 227.88484375 257.11421875 228.9765625 257.1328125 C230.17152344 257.16761719 230.17152344 257.16761719 231.390625 257.203125 C231.94701752 260.30302616 231.82944804 262.45715321 230.21655273 265.19897461 C225.16194311 271.83601443 219.3146612 277.84236192 213.453125 283.765625 C212.94950439 284.27547943 212.44588379 284.78533386 211.92700195 285.31063843 C203.93854975 293.32643752 196.27254048 299.53803541 185.390625 303.203125 C184.28460938 303.58082031 183.17859375 303.95851563 182.0390625 304.34765625 C177.62711992 305.38214814 173.53271067 305.58690542 169.015625 305.578125 C168.14220459 305.57651367 167.26878418 305.57490234 166.36889648 305.57324219 C158.33360779 305.42464289 150.97087347 303.97802073 143.27783203 301.74121094 C141.54542923 301.24726323 139.79452239 300.8194644 138.04296875 300.3984375 C130.87299512 298.5326451 125.08797673 295.46544217 118.83818054 291.63157654 C112.60068159 287.83280674 106.21540996 284.40287181 99.72265625 281.0625 C99.13107538 280.75727354 98.53949451 280.45204708 97.92998695 280.13757133 C76.42621515 269.05058616 54.73846181 258.32078206 33.09133971 247.51746815 C26.89170506 244.42335019 20.6932834 241.32680568 14.49493253 238.23011696 C1.79478608 231.88520305 -10.90678753 225.54315047 -23.609375 219.203125 C-23.40042603 218.1044812 -23.40042603 218.1044812 -23.18725586 216.98364258 C-23.00557861 216.01064209 -22.82390137 215.0376416 -22.63671875 214.03515625 C-22.45616943 213.07585205 -22.27562012 212.11654785 -22.08959961 211.12817383 C-19.54150582 195.60773065 -26.08771501 183.45329185 -33.68676758 170.39477539 C-39.34051152 160.57594562 -42.47374939 151.33855951 -40.140625 139.90625 C-36.97151855 130.17256591 -29.25567258 124.93020436 -20.609375 120.203125 C-7.46088204 113.54751408 6.60027973 110.45549197 20.90722656 107.33056641 C44.45202722 102.24778132 44.45202722 102.24778132 62.390625 87.203125 C64.0290088 83.9263574 64.03506906 80.73161577 63.390625 77.203125 C60.53869712 71.60072123 55.92124423 68.98802691 50.1484375 66.98046875 C15.1616355 57.11874977 -23.9516289 72.03434282 -55.2734375 87.171875 C-57.609375 88.203125 -57.609375 88.203125 -59.609375 88.203125 C-66.04754274 65.64385374 -70.32062183 42.45271812 -59.29296875 20.59375 C-50.83668467 7.776818 -32.96310639 4.56498707 -19.01123047 1.62036133 C-12.64352794 0.51420117 -6.44986746 0.03793223 0 0 Z " fill="#000000" transform="translate(104.609375,70.796875)"/>
<path d="M0 0 C15.37047896 9.61472514 20.25991466 30.2889678 24.1875 46.8671875 C34.94887879 95.39686687 52.84419168 177.20465993 32.625 224.5625 C31.66781633 225.92689628 30.67720099 227.2699634 29.625 228.5625 C26.6769405 228.24663648 25.71706795 227.66465247 23.69921875 225.42578125 C3.55886204 197.62374458 -4.64994096 155.5427958 -15.38903809 123.49475098 C-16.3989391 120.49130512 -17.41797567 117.49107018 -18.43847656 114.49121094 C-19.08667307 112.57489838 -19.73478854 110.65855841 -20.3828125 108.7421875 C-20.83670853 107.41684494 -20.83670853 107.41684494 -21.29977417 106.06472778 C-21.71043625 104.84521927 -21.71043625 104.84521927 -22.12939453 103.60107422 C-22.37094269 102.89054901 -22.61249084 102.1800238 -22.86135864 101.44796753 C-23.375 99.5625 -23.375 99.5625 -23.375 96.5625 C-26.75661122 97.68970374 -26.95262176 98.05007358 -28.609375 100.9921875 C-29.01502686 101.69996338 -29.42067871 102.40773926 -29.83862305 103.13696289 C-30.47537964 104.27572876 -30.47537964 104.27572876 -31.125 105.4375 C-32.02085995 106.99682722 -32.91799743 108.55542117 -33.81640625 110.11328125 C-34.47213623 111.25724365 -34.47213623 111.25724365 -35.14111328 112.42431641 C-47.29411406 133.48406726 -47.29411406 133.48406726 -55.375 136.5625 C-59.48859115 137.40265542 -62.8074128 137.45174947 -66.5234375 135.34375 C-73.17574298 129.94034478 -76.69362709 122.77042792 -80.60546875 115.31640625 C-81.00064697 114.56472168 -81.3958252 113.81303711 -81.80297852 113.03857422 C-82.58541216 111.54264662 -83.3609517 110.04308745 -84.12866211 108.53955078 C-87.90676149 101.10998538 -87.90676149 101.10998538 -94.3125 96.0625 C-97.36141881 95.29240885 -97.36141881 95.29240885 -100 96.625 C-114.74239115 108.65168751 -118.14576526 135.47691151 -122.5 152.96875 C-122.67840927 153.68522202 -122.85681854 154.40169403 -123.04063416 155.13987732 C-123.22050369 155.86256302 -123.40037323 156.58524872 -123.58569336 157.32983398 C-126.94050415 170.80182516 -130.61525345 184.05143253 -135.125 197.1875 C-135.35152252 197.85486176 -135.57804504 198.52222351 -135.81143188 199.20980835 C-141.92477467 217.11227467 -141.92477467 217.11227467 -147.375 222.5625 C-149.37109375 222.4765625 -149.37109375 222.4765625 -151.375 221.5625 C-159.04204641 208.50012463 -159.51488364 189.84907045 -159.578125 175.03125 C-159.58513931 173.93467575 -159.59215363 172.8381015 -159.59938049 171.70829773 C-159.61688506 168.15965667 -159.62323943 164.61118274 -159.625 161.0625 C-159.62567474 159.84865631 -159.62634949 158.63481262 -159.62704468 157.38418579 C-159.60986152 137.91727493 -158.9264363 118.87593515 -156.375 99.5625 C-156.2441803 98.5469101 -156.2441803 98.5469101 -156.11071777 97.51080322 C-146.27748699 21.19177424 -146.27748699 21.19177424 -126.60546875 5.93359375 C-120.46374281 2.15820705 -113.82034149 -0.51882775 -106.5546875 0.8515625 C-91.8836566 5.63673745 -85.49279914 21.99762015 -78.7644043 34.58325195 C-72.33042786 47.03589906 -72.33042786 47.03589906 -62.375 56.5625 C-58.65502218 57.11653925 -57.00593507 56.99066967 -53.87109375 54.86328125 C-47.67831477 49.15507027 -45.25131568 40.58225431 -42.9375 32.6875 C-39.11379756 19.65129878 -33.62283122 6.68888395 -21.32421875 -0.296875 C-14.66464493 -2.87249825 -6.61546339 -2.79985163 0 0 Z " fill="#000000" transform="translate(401.375,88.4375)"/>
<path d="M0 0 C167.64 0 335.28 0 508 0 C508 167.64 508 335.28 508 508 C340.36 508 172.72 508 0 508 C0 340.36 0 172.72 0 0 Z M4 4 C4 169 4 334 4 504 C169 504 334 504 504 504 C504 339 504 174 504 4 C339 4 174 4 4 4 Z " fill="#111010" transform="translate(0,0)"/>
<path d="M0 0 C2.31 0 4.62 0 7 0 C9.210823 5.78930228 11.24665644 11.61517064 13.1875 17.5 C13.46013672 18.32242187 13.73277344 19.14484375 14.01367188 19.9921875 C14.67717292 21.99433101 15.3387862 23.99709996 16 26 C18.210823 20.21069772 20.24665644 14.38482936 22.1875 8.5 C22.46013672 7.67757813 22.73277344 6.85515625 23.01367188 6.0078125 C23.67717292 4.00566899 24.3387862 2.00290004 25 0 C27.31 0 29.62 0 32 0 C32 12.21 32 24.42 32 37 C30.35 37 28.7 37 27 37 C26.67 30.07 26.34 23.14 26 16 C23.69 22.93 21.38 29.86 19 37 C17.35 37 15.7 37 14 37 C10.99083459 29.76519806 8.42581879 22.45072913 6 15 C6 22.26 6 29.52 6 37 C4.02 37 2.04 37 0 37 C0 24.79 0 12.58 0 0 Z " fill="#000000" transform="translate(304,442)"/>
<path d="M0 0 C15 0 15 0 21 4 C25.05217597 9.78882282 24.57353253 18.42812638 23.7265625 25.1796875 C22.73025388 30.16123061 20.87869293 32.80007834 17 36 C11.92281793 38.53859104 5.67646212 37 0 37 C0 24.79 0 12.58 0 0 Z M6 4 C6 13.57 6 23.14 6 33 C13.29710784 32.72855384 13.29710784 32.72855384 15.9375 30.625 C18.42589878 26.81921364 18.19798219 23.03784421 18.25 18.625 C18.27578125 17.31789063 18.3015625 16.01078125 18.328125 14.6640625 C17.98559513 10.83914558 17.33402094 9.00247562 15 6 C11.65167209 4.1970542 9.88518739 4 6 4 Z " fill="#000000" transform="translate(393,442)"/>
<path d="M0 0 C5.28 0 10.56 0 16 0 C21.7740897 5.7740897 21.7740897 5.7740897 22.14453125 11.78125 C21.86345113 16.09620971 19.98625668 19.01374332 17 22 C17.433125 22.91523438 17.86625 23.83046875 18.3125 24.7734375 C18.869375 25.96195312 19.42625 27.15046875 20 28.375 C20.556875 29.55835938 21.11375 30.74171875 21.6875 31.9609375 C23 35 23 35 23 37 C21.02 37 19.04 37 17 37 C15.99539469 34.87717331 14.99644398 32.75166979 14 30.625 C13.443125 29.44164062 12.88625 28.25828125 12.3125 27.0390625 C11 24 11 24 11 22 C9.02 22 7.04 22 5 22 C5 26.95 5 31.9 5 37 C3.35 37 1.7 37 0 37 C0 24.79 0 12.58 0 0 Z M5 4 C5 8.62 5 13.24 5 18 C6.44375 17.87625 7.8875 17.7525 9.375 17.625 C10.18710937 17.55539062 10.99921875 17.48578125 11.8359375 17.4140625 C14.20334191 17.17107412 14.20334191 17.17107412 16 15 C16.453687 10.94374913 16.453687 10.94374913 16 7 C12.27516016 3.49426838 10.35854315 4 5 4 Z " fill="#000000" transform="translate(43,442)"/>
<path d="M0 0 C17 0 17 0 21 2 C23.86149973 6.39444602 24.56746391 9.79824752 24 15 C22.20472472 19.1574796 20.20475482 21.3002055 16 23 C12.62288045 23.23826304 9.39411825 23.13576473 6 23 C6 27.62 6 32.24 6 37 C4.02 37 2.04 37 0 37 C0 24.79 0 12.58 0 0 Z M6 4 C6 8.62 6 13.24 6 18 C7.423125 18.061875 8.84625 18.12375 10.3125 18.1875 C11.11300781 18.22230469 11.91351563 18.25710938 12.73828125 18.29296875 C15.05561895 18.17693798 15.05561895 18.17693798 16.7734375 16.70703125 C18.78925124 13.90158347 18.29758265 11.33292572 18 8 C16.27773504 4.75150023 16.27773504 4.75150023 13 4 C10.69 4 8.38 4 6 4 Z " fill="#000000" transform="translate(124,442)"/>
<path d="M0 0 C1.65 0 3.3 0 5 0 C8.16348795 7.54468458 10.78201466 15.20299447 13.25 23 C13.61351562 24.13050781 13.97703125 25.26101563 14.3515625 26.42578125 C17 34.73948543 17 34.73948543 17 37 C15.02 37 13.04 37 11 37 C10.34 34.03 9.68 31.06 9 28 C5.04 28.33 1.08 28.66 -3 29 C-3.99 31.64 -4.98 34.28 -6 37 C-7.98 37 -9.96 37 -12 37 C-10.45389682 32.05140643 -8.90559137 27.10350948 -7.35522461 22.15625 C-6.82792265 20.47252141 -6.30122714 18.78860277 -5.77514648 17.10449219 C-5.01965458 14.68634844 -4.26199722 12.26889251 -3.50390625 9.8515625 C-3.26845596 9.0963028 -3.03300568 8.34104309 -2.79042053 7.56289673 C-1.11387171 2.22774341 -1.11387171 2.22774341 0 0 Z M2 9 C0.68 13.62 -0.64 18.24 -2 23 C0.97 23 3.94 23 7 23 C6.55037804 21.03964825 6.09001752 19.08175691 5.625 17.125 C5.24214844 15.48917969 5.24214844 15.48917969 4.8515625 13.8203125 C4.21093785 10.89591545 4.21093785 10.89591545 2 9 Z " fill="#000000" transform="translate(469,442)"/>
<path d="M0 0 C1.65 0 3.3 0 5 0 C8.16348795 7.54468458 10.78201466 15.20299447 13.25 23 C13.61351563 24.13050781 13.97703125 25.26101563 14.3515625 26.42578125 C17 34.73948543 17 34.73948543 17 37 C15.02 37 13.04 37 11 37 C10.34 34.03 9.68 31.06 9 28 C4.71 28 0.42 28 -4 28 C-4.144375 29.11375 -4.28875 30.2275 -4.4375 31.375 C-5 35 -5 35 -6 37 C-7.98 37 -9.96 37 -12 37 C-10.45389682 32.05140643 -8.90559137 27.10350948 -7.35522461 22.15625 C-6.82792265 20.47252141 -6.30122714 18.78860277 -5.77514648 17.10449219 C-5.01965458 14.68634844 -4.26199722 12.26889251 -3.50390625 9.8515625 C-3.26845596 9.0963028 -3.03300568 8.34104309 -2.79042053 7.56289673 C-1.11387171 2.22774341 -1.11387171 2.22774341 0 0 Z M2 8 C0.68 12.95 -0.64 17.9 -2 23 C0.97 23 3.94 23 7 23 C6.54901762 21.06077578 6.08894441 19.12366406 5.625 17.1875 C5.24214844 15.56908203 5.24214844 15.56908203 4.8515625 13.91796875 C4.11267119 10.84466657 4.11267119 10.84466657 2 8 Z " fill="#000000" transform="translate(91,442)"/>
<path d="M0 0 C6.93 0 13.86 0 21 0 C21 1.32 21 2.64 21 4 C16.05 4 11.1 4 6 4 C6 7.63 6 11.26 6 15 C10.29 15 14.58 15 19 15 C19 16.65 19 18.3 19 20 C14.71 20 10.42 20 6 20 C6 24.29 6 28.58 6 33 C10.95 33 15.9 33 21 33 C21 34.32 21 35.64 21 37 C14.07 37 7.14 37 0 37 C0 24.79 0 12.58 0 0 Z " fill="#000000" transform="translate(355,442)"/>
<path d="M0 0 C6.93 0 13.86 0 21 0 C21 1.32 21 2.64 21 4 C16.05 4 11.1 4 6 4 C6 7.63 6 11.26 6 15 C10.29 15 14.58 15 19 15 C19 16.65 19 18.3 19 20 C14.71 20 10.42 20 6 20 C6 24.29 6 28.58 6 33 C10.95 33 15.9 33 21 33 C21 34.32 21 35.64 21 37 C14.07 37 7.14 37 0 37 C0 24.79 0 12.58 0 0 Z " fill="#000000" transform="translate(242,442)"/>
<path d="M0 0 C17 0 17 0 22 4 C24.27363356 7.72049128 24.21085412 10.8849187 23.546875 15.06640625 C22.7042214 18.04578862 21.19595018 19.86863659 19 22 C14.36297289 23.5456757 9.87528349 23.05735628 5 23 C5 27.62 5 32.24 5 37 C3.35 37 1.7 37 0 37 C0 24.79 0 12.58 0 0 Z M5 4 C5 8.62 5 13.24 5 18 C6.588125 18.061875 8.17625 18.12375 9.8125 18.1875 C10.70582031 18.22230469 11.59914062 18.25710938 12.51953125 18.29296875 C15.02905755 18.19904522 15.02905755 18.19904522 16.8046875 16.70703125 C18.77548447 13.89252709 18.29622253 11.3176923 18 8 C16.27773504 4.75150023 16.27773504 4.75150023 13 4 C11.60560336 3.93334624 10.20830125 3.91461801 8.8125 3.9375 C7.554375 3.958125 6.29625 3.97875 5 4 Z " fill="#000000" transform="translate(165,442)"/>
<path d="M0 0 C1.65 0 3.3 0 5 0 C5 10.89 5 21.78 5 33 C9.95 33 14.9 33 20 33 C20 34.32 20 35.64 20 37 C13.4 37 6.8 37 0 37 C0 24.79 0 12.58 0 0 Z " fill="#000000" transform="translate(206,442)"/>
<path d="M0 0 C1.98 0 3.96 0 6 0 C6 12.21 6 24.42 6 37 C4.02 37 2.04 37 0 37 C0 24.79 0 12.58 0 0 Z " fill="#000000" transform="translate(435,442)"/>
</svg>
